<svg width="162" height="92" viewBox="0 0 162 92" fill="none" xmlns="http://www.w3.org/2000/svg">
  <path
    d="M85.375 91.375H63.25L42 56.8125L20.75 91.375H0L30.3125 44.25L1.9375 0H23.3125L43 32.875L62.3125 0H83.1875L54.5 45.3125L85.375 91.375Z"
    fill="#000"
  />
  <path
    d="M161.188 44.8125C161.188 55.1042 159.208 63.7083 155.25 70.625C151.333 77.5 145.646 82.6875 138.188 86.1875C130.729 89.6458 121.75 91.375 111.25 91.375H85.375V0H114.062C123.646 0 131.958 1.70833 139 5.125C146.042 8.5 151.5 13.5208 155.375 20.1875C159.25 26.8125 161.188 35.0208 161.188 44.8125ZM141.062 45.3125C141.062 38.5625 140.062 33.0208 138.062 28.6875C136.104 24.3125 133.188 21.0833 129.312 19C125.479 16.9167 120.729 15.875 115.062 15.875H104.75V75.375H113.062C122.521 75.375 129.542 72.8542 134.125 67.8125C138.75 62.7708 141.062 55.2708 141.062 45.3125Z"
    fill="#000"
  />
</svg>
